<?xml version="1.0" encoding="utf-8"?>
<!-- Generator: Adobe Illustrator 27.5.0, SVG Export Plug-In . SVG Version: 6.00 Build 0)  -->
<svg version="1.1" id="Capa_1" xmlns="http://www.w3.org/2000/svg" xmlns:xlink="http://www.w3.org/1999/xlink" x="0px" y="0px"
	 viewBox="0 0 2122 2122" style="enable-background:new 0 0 2122 2122;" xml:space="preserve">
<g>
	<path style="fill:#F09C39;" d="M451.734,855.953C316.328,964.668,62.566,1236.5,114.941,1425.477
		c61.008,220.121,438.563,209.07,610.324,198.023c246.223-15.836,480.199-70.797,702.746-164.754
		c287.633-121.441,562.086-306.293,584.547-643.578C2035.07,477,1600.254,490.047,1369.211,494.316
		C1040.809,500.387,705.254,652.41,451.734,855.953z"/>
	<path style="fill:#DC7F24;" d="M1655.469,802.652c-33.383-90.285-95.621-169.867-167.57-232.824
		c-32.137-28.125-67.254-54.137-104.77-75.773c-4.707,0.094-9.363,0.18-13.918,0.262c-52.855,0.977-105.898,5.785-158.758,13.93
		C1275.469,686.621,1478.691,755.816,1655.469,802.652z"/>
	<path style="fill:#C2641F;" d="M1330.98,571.434c29.852-4.207,56.438,5.508,78.82,25.375c20.008,17.762,35.934,39.434,53.34,59.625
		c19.32,22.41,39.137,44.387,58.652,66.629c15.66,17.844,31.039,35.93,45.785,54.492c29.523,9.207,59.059,17.457,87.891,25.098
		c-33.383-90.285-95.621-169.867-167.57-232.824c-32.137-28.125-67.254-54.137-104.77-75.773c-4.707,0.094-9.363,0.18-13.918,0.262
		c-52.855,0.977-105.898,5.785-158.758,13.93c11.012,30.211,26.066,57.227,44.207,81.594
		C1279.965,582.856,1305.109,575.078,1330.98,571.434z"/>
	<path style="fill:#A34613;" d="M1353.855,524.824c57.047,12.012,99.238,45.644,139.945,85.73
		c56.141,55.281,102.094,117.578,138.332,185.805c7.816,2.141,15.605,4.242,23.336,6.293
		c-33.383-90.285-95.621-169.867-167.57-232.824c-32.137-28.125-67.254-54.137-104.77-75.773c-4.707,0.094-9.363,0.18-13.918,0.262
		c-52.855,0.977-105.898,5.785-158.758,13.93c1.34,3.68,2.75,7.313,4.207,10.898
		C1261.094,518.055,1308.406,515.262,1353.855,524.824z"/>
	<path style="fill:#DC7F24;" d="M1014.129,823.887c93.891,65.32,206.598,108.328,322.25,99.977
		c-41.922-87.563-106.379-166.063-177.25-231.688c-53.434-49.469-116.586-98.387-186.664-124.789
		c-49.039,16.695-97.406,35.906-144.758,57.332C873.844,703.715,939.746,772.137,1014.129,823.887z"/>
	<path style="fill:#C2641F;" d="M894.875,702.977c15.906-14.676,33.281-33.231,53.969-41.102
		c15.707-5.977,29.168,2.547,41.984,11.574c39.609,27.918,71.902,64.605,108.699,95.859
		c53.813,45.699,113.445,85.238,169.859,127.641c12.289,9.234,24.516,18.543,36.688,27.922c10.07,0.035,20.176-0.277,30.305-1.008
		c-41.922-87.563-106.379-166.063-177.25-231.688c-53.434-49.469-116.586-98.387-186.664-124.789
		c-49.039,16.695-97.406,35.906-144.758,57.332c17.449,29.879,37.734,58.234,60.231,84.758
		C890.258,707.289,892.57,705.106,894.875,702.977z"/>
	<path style="fill:#A34613;" d="M862.465,621.059c55.938-15.133,116.883-30.316,168.383,5.324
		c22.188,15.359,41.035,34.887,60.824,53.094c25.477,23.441,51.246,46.453,75.68,71.012
		c53.816,54.09,102.434,112.438,146.293,174.277c7.563-0.109,15.137-0.355,22.734-0.902
		c-41.922-87.563-106.379-166.063-177.25-231.688c-53.434-49.469-116.586-98.387-186.664-124.789
		c-49.039,16.695-97.406,35.906-144.758,57.332c0.867,1.484,1.82,2.918,2.699,4.395C841.156,626.723,851.82,623.938,862.465,621.059
		z"/>
	<path style="fill:#DC7F24;" d="M987.461,1094.172c-40.516-84.094-109.621-154.246-181.301-212.484
		c-63.469-51.566-134.051-98.602-210.313-129.844c-50.332,32.684-98.566,67.539-144.113,104.109
		c-0.008,0.004-0.012,0.012-0.02,0.016C580.277,1019.176,775.977,1158.801,987.461,1094.172z"/>
	<path style="fill:#C2641F;" d="M638.398,875.988c48.234,15.234,86.652,54.668,125.309,85.453
		c67.57,53.809,143.695,93.844,219.879,133.855c1.293-0.375,2.582-0.73,3.875-1.125c-40.516-84.094-109.621-154.246-181.301-212.484
		c-63.469-51.566-134.051-98.602-210.313-129.844c-50.332,32.684-98.566,67.539-144.113,104.109
		c-0.008,0.004-0.012,0.012-0.02,0.016c17.051,21.645,35.293,42.867,54.586,63.262C543.016,888.41,589.168,860.438,638.398,875.988z
		"/>
	<path style="fill:#A34613;" d="M476.324,868.773c25.273-7.805,48.961-18.996,72.98-29.91c18.004-8.18,36.621-16.16,56.449-18.453
		c58.531-6.773,111.195,32.73,155.059,66.18c73.301,55.902,136.352,121.496,192.922,192.981c9.938,5.27,19.894,10.5,29.852,15.727
		c1.293-0.375,2.582-0.73,3.875-1.125c-40.516-84.094-109.621-154.246-181.301-212.484
		c-63.469-51.566-134.051-98.602-210.313-129.844c-50.332,32.684-98.566,67.539-144.113,104.109
		c-0.008,0.004-0.012,0.012-0.02,0.016c4.25,5.395,8.57,10.758,12.965,16.09C468.582,871.051,472.469,869.965,476.324,868.773z"/>
	<path style="fill:#DC7F24;" d="M1781.918,525.223c-9.066,32.418-29.66,60.773-46.305,89.703
		c-23.074,40.109-40.258,84.383-34.863,131.484c4.055,35.336,19.996,65.926,35.711,97.203
		c11.961,23.797,23.754,50.574,15.188,77.508c-13.391,42.106-57.32,71.18-92.535,93.613c-29.973,19.09-61.262,33.555-95.949,41.793
		c-32.848,7.797-66.359,11.457-99.895,14.711c-68.242,6.633-138.145,13.195-194.438,56.16
		c-42.016,32.074-71.785,75.41-108.121,113.141c-16.859,17.504-35.305,33.867-56.43,46.074
		c-21.469,12.414-43.707,18.32-67.004,25.961c-21.254,6.977-44.805,8.402-66.949,10.113c-36.891,2.855-73.922,3.898-110.914,4.293
		c-90.598,0.973-181.359-1.703-271.738-8.094c-39.602-2.805-79.203-6.262-118.559-11.551c-27.809-3.742-56.379-7.609-83.148-16.355
		c-69.973-22.852-72.996-123.809-71.48-184.031c1.094-43.461,6.027-86.672,8.137-130.063
		c-122.297,130.422-245.719,311.344-207.684,448.59c61.008,220.121,438.563,209.07,610.324,198.023
		c246.223-15.836,480.199-70.797,702.746-164.754c287.633-121.441,562.086-306.293,584.547-643.578
		C2023.93,644.402,1918.656,563.223,1781.918,525.223z"/>
	<path style="fill:#C2641F;" d="M1932.645,600.602c-1.543,14.703-2.895,29.426-4.219,44.121
		c-1.383,15.344-4.352,31.316-2.648,46.703c1.363,12.336,4.289,24.387,7.652,36.313c7.727,27.375,16.27,54.563,19.586,82.934
		c1.121,9.574,6.391,29.582,0.176,37.531c-4.082,5.219-7.125,11.367-10.094,17.25c-9.883,19.531-18.57,39.656-27.461,59.648
		c-17.703,39.809-37.145,76.5-61.605,112.637c-35.242,52.063-77.078,99.59-123.895,141.543
		c-95.477,85.574-209.496,150.824-331.211,191.047c-65.426,21.621-132.969,33.168-200.07,48.16
		c-76.449,17.078-152.508,35.863-228.828,53.492c-76.148,17.594-152.602,34.285-229.805,46.59
		c-36.316,5.781-72.785,10.773-109.402,14.246c-31.344,2.965-63.172,6.824-94.707,5.52
		c-101.805-4.23-188.914-54.145-274.793-104.051c-48.371-28.106-99.426-56.363-153.289-66.961c-0.387,20.031,1.742,39.5,6.91,58.152
		c61.008,220.121,438.563,209.07,610.324,198.023c246.223-15.836,480.199-70.797,702.746-164.754
		c287.633-121.441,562.086-306.293,584.547-643.578C2019.094,716.961,1987.055,648.383,1932.645,600.602z"/>
	<path style="fill:#A34613;" d="M1998.578,697.648c0.371,69.27-2.563,138.152-22.82,204.93
		c-31.887,105.109-80.727,201.75-156,282.668c-70.648,75.945-157.359,135.035-249.992,180.957
		c-96.316,47.758-198.449,82.77-301.773,111.895c-109.996,30.996-221.941,58.492-333.945,81.207
		c-140.094,28.402-281.09,34.098-423.266,19.984c-38.594-3.836-76.379-10.949-115.285-11.41
		c-40.117-0.477-80.25,0.813-120.141-4.352c-28.328-3.668-53.953-14.531-80.359-24.332
		c136.344,101.57,396.098,92.938,530.269,84.305c246.223-15.836,480.199-70.797,702.746-164.754
		c287.633-121.441,562.086-306.293,584.547-643.578C2015.563,769.988,2010.324,731.148,1998.578,697.648z"/>
	<path style="fill:#F4B35A;" d="M452.199,985.961c-28.469,30.492-69.961,85.738-65.098,129.711
		c6.563,59.313,84.172,69.703,128.844,84.813c79.445,26.887,157.758,92.25,245.43,90.066c96.809-2.41,217.473-50.039,304.195-86.461
		c51.871-21.777,47.258-31.145,60.031-83.539c9.027-37.051,33.258-69.305,71.086-83.59c45.922-17.34,99.539,2.059,148.543-7.227
		c42.723-8.094,87.664-33.09,129.715-47.52c49.492-16.984,101.723-30.441,149.668-46.027c50.133-16.297,54.719-40.789,42.797-80.055
		c-45.719-33.5-133.293,0.266-187.477-23.461c-59.113-25.891-112.871-73.48-168.613-105.625
		c-4.16,55.211,12.664,72.238,52.754,105.348c33.789,27.899,52.938,62.824,19.957,102.566
		c-42.742,51.512-173.852,39.938-228.496,12.199c-49.008-24.871-60.645-25.984-114.633-12.332
		c-58.406,14.77-81.332-23.848-113.637-68.602c-18.852-26.117-59.207-83.527-95.785-84.93c-60.156-2.305-1.633,70.008,18.73,90.16
		c18.137,17.949,36.715,43.027,55.731,59.867c23.191,20.539,55.113,22.313,74.223,49.762c11.105,15.961,11.898,38.938,24.445,55.875
		c17.285,23.332,30.684,24.578,35.559,57.762c-43.363,44.414-97.324,64.199-158.879,60.848
		c-26.453-1.441-50.773-13.148-79.859-10.074c-29.231,3.094-54.078,17.543-84.813,15.195
		c-114.375-8.727-164.336-158.793-279.383-169.742"/>
	<path style="fill:#F4B35A;" d="M1675.77,557.68c18.434-1.457,28.965,1.438,40.199,17.664c18.84,27.199,0.23,11.035-12.477,29.949
		c-20.078,29.883-14.469,87.168-37.414,107.75c-27.758-18.262-34.063-70.504-54.891-97.656
		c-21.297-27.766-90.977-28.387-87.781-70.477c45.348-2.805,88.285,4.25,133.934,4.25L1675.77,557.68z"/>
	<path style="fill:#C2641F;" d="M242.664,1165.563c-7.797,24.625-9.469,50.367-18.715,74.836
		c-7.906,20.93-27.809,33.336-34.914,50.883c-13.922,34.406,8.809,78.43,43.535,88.926c45.914,13.871,92.324-14.68,133.566,16.086
		c35.211,26.266,48.367,59.773,91.055,78.715c89.328,39.645,174.305,7.891,264.434-8.996c25.769-4.82,107.141-1.758,124.805-22.191
		c29.43-34.051-36.891-55.141-64.957-59.852c-69.703-11.695-114.23,17.52-179.602,26.317c-71.809,9.66-91.766-36.422-145.922-63.871
		c-42.719-21.652-137.914-19.75-167.117-52.402c-36.188-40.461,21.113-103.254-26.215-143.414L242.664,1165.563z"/>
	<path style="fill:#C2641F;" d="M1654.547,1105.695c6.457-5.457,100.871-86.227,119-65.191c27.488,31.891-53.066,74.605-68,86.535
		c-71.027,56.734-127.145,96.309-215.637,108.371c-90.504,12.344-162.199,61.902-244.348,101.016
		c-81.832,38.961-206.215,91.43-293.949,72.605c80.754-109.121,274.93-83.738,355.191-197.438
		c39.508-55.973,42.531-99.945,124.504-100.91C1431.309,1110.684,1573.059,1135.629,1654.547,1105.695z"/>
	<path style="fill:#C2641F;" d="M1829.164,606.797c-94.953,21.887-47.875,118.613-26.199,170.738
		c26.895,64.676-32.316,111.668-17.691,177.98c29.41-16.863,65.508-43.367,74.063-79.313
		c11.188-46.977-10.625-83.367-19.203-124.723c-7.551-36.422,13.094-69.234,28.957-99.766c10.23-19.68,24.598-16.078,9.941-34.922
		c-7.965-10.246-41.266-11.914-49.867-14.984"/>
</g>
</svg>
